<svg width="34" height="72" viewBox="0 0 34 72" fill="none" xmlns="http://www.w3.org/2000/svg">
<path d="M14.336 71.24C13.152 71.24 11.992 71.072 10.856 70.736C9.736 70.384 8.792 69.904 8.024 69.296L9.368 66.872C9.976 67.368 10.712 67.768 11.576 68.072C12.44 68.376 13.344 68.528 14.288 68.528C15.408 68.528 16.28 68.304 16.904 67.856C17.528 67.392 17.84 66.768 17.84 65.984C17.84 65.216 17.552 64.608 16.976 64.16C16.4 63.712 15.472 63.488 14.192 63.488H12.656V61.352L17.456 55.64L17.864 56.816H8.84V54.2H20.288V56.288L15.488 62L13.856 61.04H14.792C16.856 61.04 18.4 61.504 19.424 62.432C20.464 63.344 20.984 64.52 20.984 65.96C20.984 66.904 20.744 67.776 20.264 68.576C19.784 69.376 19.048 70.024 18.056 70.52C17.08 71 15.84 71.24 14.336 71.24Z" fill="#B9BFC8"/>
<path fill-rule="evenodd" clip-rule="evenodd" d="M10.5238 7.28571C10.5238 3.26193 13.7857 0 17.8095 0C21.8333 0 25.0952 3.26193 25.0952 7.28571C25.0952 11.3095 21.8333 14.5714 17.8095 14.5714C13.7857 14.5714 10.5238 11.3095 10.5238 7.28571ZM17.8095 3.2381C15.5741 3.2381 13.7619 5.05028 13.7619 7.28571C13.7619 9.52115 15.5741 11.3333 17.8095 11.3333C20.045 11.3333 21.8571 9.52115 21.8571 7.28571C21.8571 5.05028 20.045 3.2381 17.8095 3.2381Z" fill="#82B6F8"/>
<path d="M16.1905 20.2381C8.85255 20.2381 3.2381 25.4862 3.2381 31.5714C3.2381 32.4656 2.51322 33.1905 1.61905 33.1905C0.724872 33.1905 0 32.4656 0 31.5714C0 23.3498 7.43329 17 16.1905 17C17.0847 17 17.8095 17.7249 17.8095 18.619C17.8095 19.5132 17.0847 20.2381 16.1905 20.2381Z" fill="#82B6F8"/>
<path fill-rule="evenodd" clip-rule="evenodd" d="M24.1643 19.4286C21.3253 19.4286 19.4286 22.0207 19.4286 24.6795C19.4286 27.0295 20.6044 29.1238 21.9034 30.6525C23.198 32.176 24.8247 33.3854 26.1297 33.8908C26.5058 34.0364 26.9228 34.0364 27.2989 33.8908C28.6039 33.3854 30.2305 32.176 31.5251 30.6525C32.8241 29.1238 34 27.0295 34 24.6795C34 22.0207 32.1033 19.4286 29.2643 19.4286C28.301 19.4286 27.4328 19.7416 26.7143 20.2513C25.9957 19.7416 25.1276 19.4286 24.1643 19.4286ZM22.6667 24.6795C22.6667 23.3266 23.5607 22.6667 24.1643 22.6667C24.5555 22.6667 25.0045 22.8918 25.3286 23.4281C25.6218 23.9133 26.1474 24.2098 26.7143 24.2098C27.2812 24.2098 27.8068 23.9133 28.1 23.4281C28.4241 22.8918 28.8731 22.6667 29.2643 22.6667C29.8679 22.6667 30.7619 23.3266 30.7619 24.6795C30.7619 25.9612 30.0961 27.3336 29.0576 28.5557C28.2706 29.4818 27.3904 30.1791 26.7143 30.5785C26.0382 30.1791 25.1579 29.4818 24.371 28.5557C23.3325 27.3336 22.6667 25.9612 22.6667 24.6795Z" fill="#82B6F8"/>
</svg>

