<svg width="34" height="76" viewBox="0 0 34 76" fill="none" xmlns="http://www.w3.org/2000/svg">
<path d="M8.816 72.184V70.024L17.096 59.2H20.432L12.272 70.024L10.712 69.544H24.032V72.184H8.816ZM18.032 76V72.184L18.128 69.544V66.16H21.056V76H18.032Z" fill="#B9BFC8"/>
<path fill-rule="evenodd" clip-rule="evenodd" d="M17.0075 0C17.9464 0 18.7075 0.801174 18.7075 1.78947V5.45925C20.6339 5.66421 22.4574 6.20581 24.1262 6.97857L25.4995 4.96162C26.0464 4.15833 27.1084 3.97385 27.8716 4.54957C28.6347 5.12529 28.81 6.2432 28.263 7.04649L27.1251 8.71771C27.7628 9.16876 28.3641 9.65149 28.9247 10.1569C31.8788 12.8206 34 16.4042 34 19.6842C34 22.9642 31.8788 26.5478 28.9247 29.2115C25.9039 31.9353 21.6987 34 17 34C12.301 34 8.09578 31.9338 5.07517 29.2094C2.12144 26.5454 0 22.9619 0 19.6842C0 16.4066 2.12144 12.823 5.07517 10.159C5.83778 9.4712 6.67589 8.82534 7.5784 8.24408L6.49236 6.64893C5.94544 5.84563 6.12072 4.72772 6.88386 4.15202C7.64699 3.57631 8.70901 3.76081 9.25593 4.56412L10.6658 6.63491C12.1184 6.04364 13.6761 5.62987 15.3075 5.45772V1.78947C15.3075 0.801174 16.0686 0 17.0075 0ZM17 8.94738C13.2491 8.94738 9.80429 10.6067 7.28738 12.8768C4.70359 15.2071 3.4 17.8868 3.4 19.6842C3.4 21.4817 4.70359 24.1613 7.28738 26.4917C9.80429 28.7617 13.2491 30.4211 17 30.4211C20.7512 30.4211 24.1961 28.7627 26.7128 26.4934C29.2962 24.164 30.6 21.4844 30.6 19.6842C30.6 17.884 29.2962 15.2044 26.7128 12.875C24.1961 10.6057 20.7512 8.94738 17 8.94738ZM10.2 19.6842C10.2 15.731 13.2445 12.5263 17 12.5263C20.7555 12.5263 23.8 15.731 23.8 19.6842C23.8 23.6374 20.7555 26.8421 17 26.8421C13.2445 26.8421 10.2 23.6374 10.2 19.6842ZM17 16.1053C15.1222 16.1053 13.6 17.7076 13.6 19.6842C13.6 21.6608 15.1222 23.2632 17 23.2632C18.8778 23.2632 20.4 21.6608 20.4 19.6842C20.4 17.7076 18.8778 16.1053 17 16.1053Z" fill="#1877F2" fill-opacity="0.54"/>
</svg>

