<svg width="250" height="250" viewBox="0 0 250 250" fill="none" xmlns="http://www.w3.org/2000/svg">
<circle cx="125" cy="125" r="125" fill="#D0E2F9"/>
<path fill-rule="evenodd" clip-rule="evenodd" d="M121.81 38.5014C124.238 36.1926 127.898 36.1926 130.327 38.5014L188.019 93.3447C189.388 94.6456 190.171 96.5103 190.171 98.4685V180.733C190.171 184.52 187.301 187.589 183.761 187.589H68.3761C64.8358 187.589 61.9658 184.52 61.9658 180.733V98.4685C61.9658 96.5103 62.7488 94.6456 64.1173 93.3447L121.81 38.5014ZM119.658 173.878H132.479V146.456H119.658V173.878ZM145.299 173.878V139.601C145.299 135.815 142.429 132.746 138.889 132.746H113.248C109.708 132.746 106.838 135.815 106.838 139.601V173.878H97.2222V119.035H154.915V173.878H145.299ZM177.35 173.878H167.735V119.035H177.35V173.878ZM177.35 105.324H167.735V92.4065L177.35 101.547V105.324ZM154.915 105.324V80.2191L126.068 52.7974L97.2222 80.2191V105.324H154.915ZM84.4017 119.035V173.878H74.7863V119.035H84.4017ZM84.4017 92.4065V105.324H74.7863V101.547L84.4017 92.4065Z" fill="#273655" fill-opacity="0.71"/>
</svg>
