<svg width="164" height="122" viewBox="0 0 164 122" fill="none" xmlns="http://www.w3.org/2000/svg">
<rect width="164" height="122" fill="white"/>
<rect x="0.25" y="0.25" width="163.5" height="121.5" stroke="#1877F2" stroke-opacity="0.46" stroke-width="0.5"/>
<path fill-rule="evenodd" clip-rule="evenodd" d="M78.1218 33.1564C81.9878 30.5318 87.1705 29 92.7535 29C98.3365 29 103.519 30.5318 107.385 33.1564C111.244 35.7761 114 39.6643 114 44.2727V90.0909C114 91.6976 112.641 93 110.965 93C109.288 93 107.93 91.6976 107.93 90.0909V44.2727C107.93 42.0529 106.609 39.7593 103.876 37.9042C101.151 36.0541 97.2283 34.8182 92.7535 34.8182C88.2787 34.8182 84.3558 36.0541 81.6306 37.9042C79.1176 39.6102 77.7987 41.6871 77.603 43.7365C80.7204 44.1304 83.5843 45.1208 85.8838 46.5902C88.8982 48.5163 91.2359 51.4966 91.2359 55.1818V58.0909C91.2359 59.6976 89.877 61 88.2007 61H60.8837C59.2074 61 57.8485 59.6976 57.8485 58.0909V55.1818C57.8485 51.4966 60.1862 48.5163 63.2005 46.5902C65.5095 45.1148 68.3874 44.1223 71.5197 43.7317C71.7258 39.3601 74.415 35.6729 78.1218 33.1564ZM66.5678 51.4312C64.6388 52.6638 63.9189 54.0471 63.9189 55.1818H85.1654C85.1654 54.0471 84.4456 52.6638 82.5166 51.4312C80.6087 50.2122 77.7982 49.3636 74.5422 49.3636C71.2861 49.3636 68.4756 50.2122 66.5678 51.4312ZM74.5422 63.9091C76.2185 63.9091 77.5774 65.2115 77.5774 66.8182V68.2727C77.5774 69.8794 76.2185 71.1818 74.5422 71.1818C72.8659 71.1818 71.507 69.8794 71.507 68.2727V66.8182C71.507 65.2115 72.8659 63.9091 74.5422 63.9091ZM63.6987 64.1286C65.2739 64.678 66.0862 66.3473 65.5129 67.8571L64.9939 69.224C64.4206 70.7337 62.6789 71.5122 61.1037 70.9628C59.5285 70.4133 58.7162 68.744 59.2895 67.2342L59.8085 65.8674C60.3817 64.3576 62.1234 63.5791 63.6987 64.1286ZM74.5422 74.0909C76.2185 74.0909 77.5774 75.3934 77.5774 77V79.9091C77.5774 81.5157 76.2185 82.8182 74.5422 82.8182C72.8659 82.8182 71.507 81.5157 71.507 79.9091V77C71.507 75.3934 72.8659 74.0909 74.5422 74.0909ZM59.4056 74.3541C60.9808 74.9036 61.793 76.5729 61.2197 78.0827L60.1816 80.8163C59.6083 82.3261 57.8665 83.1045 56.2913 82.555C54.7161 82.0055 53.9039 80.3362 54.4772 78.8264L55.5153 76.0928C56.0887 74.583 57.8304 73.8046 59.4056 74.3541ZM74.5422 85.7273C76.2185 85.7273 77.5774 87.0297 77.5774 88.6364V90.0909C77.5774 91.6976 76.2185 93 74.5422 93C72.8659 93 71.507 91.6976 71.507 90.0909V88.6364C71.507 87.0297 72.8659 85.7273 74.5422 85.7273ZM54.5932 85.9468C56.1684 86.4963 56.9806 88.1656 56.4073 89.6754L55.8882 91.0422C55.3149 92.552 53.5732 93.3304 51.9979 92.7809C50.4227 92.2314 49.6105 90.5621 50.1839 89.0523L50.7029 87.6855C51.2762 86.1757 53.018 85.3973 54.5932 85.9468Z" fill="#5DA0F6"/>
</svg>


