<svg width="164" height="122" viewBox="0 0 164 122" fill="none" xmlns="http://www.w3.org/2000/svg">
<rect width="164" height="122" fill="white"/>
<rect x="0.25" y="0.25" width="163.5" height="121.5" stroke="#1877F2" stroke-opacity="0.46" stroke-width="0.5"/>
<path fill-rule="evenodd" clip-rule="evenodd" d="M55.8182 55.5412V38.4118C55.8182 33.2137 59.0743 29 63.0909 29H100.909C104.926 29 108.182 33.2137 108.182 38.4118V55.5412C111.501 56.4132 114 60.2113 114 64.7647V81.7059C114 83.7851 112.698 85.4706 111.091 85.4706V89.2353C111.091 91.3145 109.788 93 108.182 93C106.575 93 105.273 91.3145 105.273 89.2353V85.4706H58.7273V89.2353C58.7273 91.3145 57.4248 93 55.8182 93C54.2115 93 52.9091 91.3145 52.9091 89.2353V85.4706C51.3024 85.4706 50 83.7851 50 81.7059V64.7647C50 60.2113 52.4986 56.4132 55.8182 55.5412ZM61.6364 38.4118C61.6364 37.3721 62.2876 36.5294 63.0909 36.5294H100.909C101.712 36.5294 102.364 37.3721 102.364 38.4118V49.7049C101.037 47.4194 98.9245 45.9412 96.5455 45.9412H87.8182C85.4391 45.9412 83.3269 47.4194 82 49.7049C80.6731 47.4194 78.5609 45.9412 76.1818 45.9412H67.4545C65.0755 45.9412 62.9632 47.4194 61.6364 49.7049V38.4118ZM96.5455 53.4706C97.3488 53.4706 98 54.3133 98 55.3529H86.3636C86.3636 54.3133 87.0148 53.4706 87.8182 53.4706H96.5455ZM77.6364 55.3529C77.6364 54.3133 76.9852 53.4706 76.1818 53.4706H67.4545C66.6512 53.4706 66 54.3133 66 55.3529H77.6364ZM55.8182 77.9412H108.182V64.7647C108.182 63.725 107.531 62.8824 106.727 62.8824H57.2727C56.4694 62.8824 55.8182 63.7251 55.8182 64.7647V77.9412Z" fill="#1877F2" fill-opacity="0.7"/>
</svg>
