<svg width="164" height="122" viewBox="0 0 164 122" fill="none" xmlns="http://www.w3.org/2000/svg">
<rect width="164" height="122" fill="white"/>
<rect x="0.25" y="0.25" width="163.5" height="121.5" stroke="#1877F2" stroke-opacity="0.46" stroke-width="0.5"/>
<path fill-rule="evenodd" clip-rule="evenodd" d="M69.8095 29C71.4927 29 72.8571 30.3645 72.8571 32.0476V33.5714H91.1429V32.0476C91.1429 30.3645 92.5073 29 94.1905 29C95.8736 29 97.2381 30.3645 97.2381 32.0476V33.5714H107.905C111.271 33.5714 114 36.3004 114 39.6667V86.9048C114 90.2711 111.271 93 107.905 93H56.0952C52.729 93 50 90.2711 50 86.9048V39.6667C50 36.3004 52.7289 33.5714 56.0952 33.5714H66.7619V32.0476C66.7619 30.3645 68.1264 29 69.8095 29ZM66.7619 39.6667H56.0952V51.8571H107.905V39.6667H97.2381V44.2381C97.2381 45.9212 95.8736 47.2857 94.1905 47.2857C92.5073 47.2857 91.1429 45.9212 91.1429 44.2381V39.6667H72.8571V44.2381C72.8571 45.9212 71.4927 47.2857 69.8095 47.2857C68.1264 47.2857 66.7619 45.9212 66.7619 44.2381V39.6667ZM107.905 57.9524H56.0952V86.9048H107.905V57.9524ZM63.7143 65.5714C63.7143 63.8883 65.0788 62.5238 66.7619 62.5238H75.9048C77.5879 62.5238 78.9524 63.8883 78.9524 65.5714C78.9524 67.2546 77.5879 68.619 75.9048 68.619H66.7619C65.0788 68.619 63.7143 67.2546 63.7143 65.5714ZM85.0476 65.5714C85.0476 63.8883 86.4121 62.5238 88.0952 62.5238H97.2381C98.9213 62.5238 100.286 63.8883 100.286 65.5714C100.286 67.2546 98.9213 68.619 97.2381 68.619H88.0952C86.4121 68.619 85.0476 67.2546 85.0476 65.5714ZM63.7143 77.7619C63.7143 76.0788 65.0788 74.7143 66.7619 74.7143H75.9048C77.5879 74.7143 78.9524 76.0788 78.9524 77.7619C78.9524 79.4451 77.5879 80.8095 75.9048 80.8095H66.7619C65.0788 80.8095 63.7143 79.4451 63.7143 77.7619ZM85.0476 77.7619C85.0476 76.0788 86.4121 74.7143 88.0952 74.7143H97.2381C98.9213 74.7143 100.286 76.0788 100.286 77.7619C100.286 79.4451 98.9213 80.8095 97.2381 80.8095H88.0952C86.4121 80.8095 85.0476 79.4451 85.0476 77.7619Z" fill="#1877F2" fill-opacity="0.7"/>
</svg>
