<svg width="164" height="122" viewBox="0 0 164 122" fill="none" xmlns="http://www.w3.org/2000/svg">
<rect width="164" height="122" fill="white"/>
<rect x="0.25" y="0.25" width="163.5" height="121.5" stroke="#1877F2" stroke-opacity="0.46" stroke-width="0.5"/>
<path d="M70.8838 65.3554C70.4183 63.7805 68.7944 62.8903 67.2566 63.3671C65.7189 63.8438 64.8497 65.507 65.3152 67.0819C65.9096 69.0929 66.7332 70.8894 67.8455 72.3867L67.8636 72.4112C68.8798 73.7726 70.1088 75.0014 71.5246 76.1062C72.8026 77.1034 74.6279 76.8509 75.6017 75.542C76.5754 74.2332 76.3287 72.3637 75.0508 71.3664C74.0058 70.551 73.1638 69.6965 72.5002 68.8114L72.4857 68.7918C71.8864 67.9892 71.3322 66.8726 70.8838 65.3554Z" fill="#1877F2" fill-opacity="0.7"/>
<path fill-rule="evenodd" clip-rule="evenodd" d="M81.961 52.778C86.9324 42.2674 89.8658 36.0463 90.7695 34.0969L90.7832 34.0678C91.8531 31.778 93.5817 30.1607 95.7169 29.4292C97.8134 28.7109 100.034 28.9362 102.003 29.7926L102.024 29.8015C106.404 31.7181 108.249 37.1435 106.306 41.1833L106.297 41.2023C105.676 42.4932 103.844 46.3489 100.795 52.778H111.091C112.698 52.778 114 54.1119 114 55.7574C114 69.3759 105.739 81.0089 94.0624 85.8329C94.0434 85.894 94.0227 85.9656 94.0011 86.0487C93.7944 86.8427 93.6276 88.1567 93.5697 90.1109C93.5221 91.7205 92.2343 93 90.662 93H73.3542C71.8952 93 70.6619 91.8932 70.4703 90.4119C70.209 88.3917 69.9002 86.997 69.5916 86.1217C69.5056 85.8778 69.4309 85.7072 69.3747 85.5939C57.9976 80.6337 50 69.1563 50 55.7574C50 54.1119 51.3024 52.778 52.9091 52.778H81.961ZM96.0254 36.6529C96.4829 35.6661 97.0612 35.252 97.5626 35.0802C98.1044 34.8946 98.8541 34.8945 99.7383 35.2813L99.7497 35.2863C101.072 35.8736 101.538 37.5895 101.092 38.5393L101.086 38.5506C100.388 40.0025 98.1333 44.7492 94.3277 52.778H88.4257C92.6326 43.8808 95.1639 38.51 96.0133 36.6787L96.0254 36.6529ZM108.018 58.7368C106.916 68.7068 100.346 77.0252 91.3803 80.5093C90.3459 80.9114 89.6726 81.6743 89.2535 82.3554C88.8376 83.0312 88.5679 83.789 88.3792 84.5139C88.1858 85.257 88.0429 86.1049 87.941 87.0412H75.8286C75.6145 85.9334 75.3627 84.9454 75.0639 84.0979C74.8056 83.3653 74.4764 82.633 74.0352 81.992C73.5982 81.357 72.9415 80.6542 71.9851 80.253C63.3442 76.6286 57.058 68.47 55.9819 58.7368C73.3319 58.7368 90.6689 58.7368 108.018 58.7368Z" fill="#1877F2" fill-opacity="0.7"/>
</svg>
