<svg width="164" height="122" viewBox="0 0 164 122" fill="none" xmlns="http://www.w3.org/2000/svg">
<rect width="164" height="122" fill="white"/>
<rect x="0.25" y="0.25" width="163.5" height="121.5" stroke="#1877F2" stroke-opacity="0.46" stroke-width="0.5"/>
<path fill-rule="evenodd" clip-rule="evenodd" d="M80.2222 61.0003H87.3333C93.2243 61.0003 98 57.0928 98 52.2729C98 47.453 93.2243 43.5456 87.3333 43.5456H76.6667C74.703 43.5456 73.1111 44.848 73.1111 46.4547V69.7276C73.1111 71.3343 74.703 72.6367 76.6667 72.6367C78.6303 72.6367 80.2222 71.3343 80.2222 69.7276V61.0003ZM80.2222 49.3638V55.182H87.3333C89.2969 55.182 90.8889 53.8795 90.8889 52.2729C90.8889 50.6663 89.2969 49.3638 87.3333 49.3638H80.2222Z" fill="#1877F2" fill-opacity="0.7"/>
<path fill-rule="evenodd" clip-rule="evenodd" d="M50 53.7275C50 39.8968 64.5465 29 82 29C99.4535 29 114 39.8968 114 53.7275C114 64.2781 106.15 74.0559 98.9115 80.9034C95.2268 84.3893 91.5522 87.254 88.8015 89.2467C87.4236 90.2449 86.2713 91.0288 85.4569 91.5672C85.0495 91.8365 84.7263 92.0447 84.5011 92.1879C84.3885 92.2595 84.3004 92.3148 84.2386 92.3534L84.1656 92.3988L84.1443 92.412L84.1375 92.4161C84.1366 92.4167 84.1333 92.4187 82 90.0914C79.8667 92.4187 79.8658 92.4182 79.8649 92.4176L79.8557 92.412L79.8344 92.3988L79.7614 92.3534C79.6996 92.3148 79.6115 92.2595 79.4989 92.1879C79.2737 92.0447 78.9505 91.8365 78.5431 91.5672C77.7287 91.0288 76.5764 90.2449 75.1985 89.2467C72.4478 87.254 68.7732 84.3893 65.0885 80.9034C57.8504 74.0559 50 64.2781 50 53.7275ZM82 86.3607C82.5979 85.952 83.302 85.4596 84.0874 84.8906C86.67 83.0197 90.1065 80.3389 93.5329 77.0974C100.517 70.4903 106.889 62.0861 106.889 53.7275C106.889 43.4582 95.9655 34.8182 82 34.8182C68.0345 34.8182 57.1111 43.4582 57.1111 53.7275C57.1111 62.0861 63.483 70.4903 70.4671 77.0974C73.8935 80.3389 77.33 83.0197 79.9126 84.8906C80.698 85.4596 81.4021 85.952 82 86.3607Z" fill="#1877F2" fill-opacity="0.7"/>
<path d="M82 90.0914L84.1333 92.4187C82.8691 93.1945 81.1291 93.1934 79.8649 92.4176L82 90.0914Z" fill="#1877F2" fill-opacity="0.7"/>
</svg>

