<svg width="164" height="122" viewBox="0 0 164 122" fill="none" xmlns="http://www.w3.org/2000/svg">
<rect width="164" height="122" fill="white"/>
<rect x="0.25" y="0.25" width="163.5" height="121.5" stroke="#1877F2" stroke-opacity="0.46" stroke-width="0.5"/>
<path fill-rule="evenodd" clip-rule="evenodd" d="M79.874 29.7348C81.0865 28.7551 82.9135 28.7551 84.126 29.7348L112.926 53.0075C113.609 53.5596 114 54.3509 114 55.1818V90.0909C114 91.6976 112.567 93 110.8 93H53.2C51.4327 93 50 91.6976 50 90.0909V55.1818C50 54.3509 50.3909 53.5596 51.074 53.0075L79.874 29.7348ZM91.6 87.1818V72.6364C91.6 71.0297 90.1673 69.7273 88.4 69.7273H75.6C73.8327 69.7273 72.4 71.0297 72.4 72.6364V87.1818H67.6V63.9091H96.4V87.1818H91.6ZM107.6 87.1818H102.8V63.9091H107.6V87.1818ZM107.6 58.0909H102.8V52.6094L107.6 56.4882V58.0909ZM96.4 58.0909V47.4377L82 35.8013L67.6 47.4377V58.0909H96.4ZM61.2 63.9091V87.1818H56.4V63.9091H61.2ZM61.2 52.6094V58.0909H56.4V56.4882L61.2 52.6094Z" fill="#1877F2" fill-opacity="0.7"/>
</svg>
