<svg width="1441" height="2513" viewBox="0 0 1441 2513" fill="none" xmlns="http://www.w3.org/2000/svg">
<rect width="1440" height="2513" transform="translate(1)" fill="#F8F8F8"/>
<path fill-rule="evenodd" clip-rule="evenodd" d="M1365.7 311.787L754.969 313.285L1056.76 69.1412L1365.7 311.787V311.787Z" stroke="#273655" stroke-opacity="0.41"/>
<path fill-rule="evenodd" clip-rule="evenodd" d="M1408.28 322.951L684.515 324.672L1042.06 35.4255L1408.28 322.951Z" stroke="#273655" stroke-opacity="0.41"/>
<path fill-rule="evenodd" clip-rule="evenodd" d="M1433.83 329.65L642 331.7L1033.48 15L1433.83 329.65V329.65Z" stroke="#273655" stroke-opacity="0.41"/>
<path fill-rule="evenodd" clip-rule="evenodd" d="M774.802 1062.2L121.869 1064.44L444.435 722.869L774.802 1062.2V1062.2Z" stroke="#273655" stroke-opacity="0.41"/>
<path fill-rule="evenodd" clip-rule="evenodd" d="M820.325 1077.8L46.5503 1080.38L428.707 675.713L820.325 1077.8V1077.8Z" stroke="#273655" stroke-opacity="0.41"/>
<path fill-rule="evenodd" clip-rule="evenodd" d="M847.639 1087.16L1.10051 1090.22L419.53 647.144L847.639 1087.16V1087.16Z" stroke="#273655" stroke-opacity="0.41"/>
<path fill-rule="evenodd" clip-rule="evenodd" d="M1417.27 2484.42L1296.33 2491.56L1352.87 2419.54L1417.27 2484.42V2484.42Z" stroke="#273655" stroke-opacity="0.41"/>
<path fill-rule="evenodd" clip-rule="evenodd" d="M1425.85 2487.09L1282.53 2495.54L1349.51 2410.22L1425.85 2487.09V2487.09Z" stroke="#273655" stroke-opacity="0.41"/>
<path fill-rule="evenodd" clip-rule="evenodd" d="M1431 2488.7L1274.2 2497.99L1347.54 2404.56L1431 2488.7V2488.7Z" stroke="#273655" stroke-opacity="0.41"/>
<rect width="1520.7" height="870" transform="matrix(0.94693 -0.321439 0 1 1 1007.81)" fill="#D0E2F9" fill-opacity="0.3"/>
</svg>

