<svg width="42" height="42" viewBox="0 0 42 42" fill="none" xmlns="http://www.w3.org/2000/svg">
<g clip-path="url(#clip0_112_257)">
<path d="M41.5905 21.4837C41.5905 20.0562 41.4747 18.621 41.2278 17.2166H21.4199V25.3033H32.763C32.2923 27.9114 30.7799 30.2186 28.5653 31.6847V36.9318H35.3325C39.3064 33.2743 41.5905 27.8729 41.5905 21.4837Z" fill="#4285F4"/>
<path d="M21.4199 42.0014C27.0837 42.0014 31.8601 40.1418 35.3402 36.9318L28.573 31.6847C26.6902 32.9656 24.2595 33.691 21.4277 33.691C15.9491 33.691 11.3038 29.9948 9.63709 25.0255H2.65381V30.4347C6.21876 37.526 13.4798 42.0014 21.4199 42.0014Z" fill="#34A853"/>
<path d="M9.62936 25.0255C8.7497 22.4174 8.7497 19.5932 9.62936 16.9851V11.5759H2.6538C-0.324704 17.5098 -0.324704 24.5008 2.6538 30.4346L9.62936 25.0255Z" fill="#FBBC04"/>
<path d="M21.4199 8.3119C24.4139 8.26561 27.3075 9.39219 29.4758 11.4602L35.4714 5.46458C31.6749 1.89963 26.6362 -0.0603155 21.4199 0.00141517C13.4798 0.00141517 6.21875 4.47689 2.65381 11.5759L9.62937 16.9851C11.2884 12.008 15.9413 8.3119 21.4199 8.3119Z" fill="#EA4335"/>
</g>
<defs>
<clipPath id="clip0_112_257">
<rect width="42" height="42" fill="white"/>
</clipPath>
</defs>
</svg>
